<svg width="1920" height="1073" viewBox="0 0 1920 1073" fill="none" xmlns="http://www.w3.org/2000/svg">
<g opacity="0.6" clip-path="url(#clip0_282_237)">
<g filter="url(#filter0_f_282_237)">
<path d="M-539 527.761C-539 527.761 49.9107 470.681 154.5 503.967C259.089 537.253 590 527.761 590 527.761L45.5 836.467L-403.093 767.617L-539 527.761Z" fill="#A427F0"/>
</g>
<g filter="url(#filter1_f_282_237)">
<path d="M-159 500.467C-159 500.467 -12.2005 301.361 30 321.42C72.2006 341.479 370.396 474.09 378.254 525.027C392.097 614.763 253.5 594.92 253.5 594.92L-159 500.467Z" fill="#FF47D7"/>
</g>
<g filter="url(#filter2_f_282_237)">
<path d="M1311.33 207.252C1422.15 182.818 1606 193.184 1606 193.184V437.804C1606 437.804 1498 525.192 1368.88 576.136C1275.36 613.034 1197.85 649.964 1104.96 612.087C976.605 559.744 991.045 419.358 1066.27 322.137C1124.23 247.228 1204.09 230.898 1311.33 207.252Z" fill="#006CA9"/>
</g>
<g filter="url(#filter3_f_282_237)">
<path d="M1523.5 425H1735L1681 552L1578 674.5L1381 798L1297 289L1523.5 425Z" fill="#32A5B3"/>
</g>
</g>
<defs>
<filter id="filter0_f_282_237" x="-863" y="169.544" width="1777" height="990.923" filterUnits="userSpaceOnUse" color-interpolation-filters="sRGB">
<feFlood flood-opacity="0" result="BackgroundImageFix"/>
<feBlend mode="normal" in="SourceGraphic" in2="BackgroundImageFix" result="shape"/>
<feGaussianBlur stdDeviation="162" result="effect1_foregroundBlur_282_237"/>
</filter>
<filter id="filter1_f_282_237" x="-408" y="71" width="1036.23" height="774.786" filterUnits="userSpaceOnUse" color-interpolation-filters="sRGB">
<feFlood flood-opacity="0" result="BackgroundImageFix"/>
<feBlend mode="normal" in="SourceGraphic" in2="BackgroundImageFix" result="shape"/>
<feGaussianBlur stdDeviation="124.5" result="effect1_foregroundBlur_282_237"/>
</filter>
<filter id="filter2_f_282_237" x="780" y="-38" width="1055" height="895" filterUnits="userSpaceOnUse" color-interpolation-filters="sRGB">
<feFlood flood-opacity="0" result="BackgroundImageFix"/>
<feBlend mode="normal" in="SourceGraphic" in2="BackgroundImageFix" result="shape"/>
<feGaussianBlur stdDeviation="114.5" result="effect1_foregroundBlur_282_237"/>
</filter>
<filter id="filter3_f_282_237" x="1080" y="72" width="872" height="943" filterUnits="userSpaceOnUse" color-interpolation-filters="sRGB">
<feFlood flood-opacity="0" result="BackgroundImageFix"/>
<feBlend mode="normal" in="SourceGraphic" in2="BackgroundImageFix" result="shape"/>
<feGaussianBlur stdDeviation="108.5" result="effect1_foregroundBlur_282_237"/>
</filter>
<clipPath id="clip0_282_237">
<rect width="1920" height="1073" fill="white"/>
</clipPath>
</defs>
</svg>
