<svg width="254" height="66" viewBox="0 0 254 66" fill="none" xmlns="http://www.w3.org/2000/svg">
<path d="M62.6229 14.3836C63.3789 13.6302 63.9781 12.7345 64.386 11.7483C64.7939 10.762 65.0024 9.70481 64.9994 8.6376C65.0106 7.02574 64.5394 5.44736 63.6464 4.10531C62.7534 2.76326 61.4793 1.71884 59.988 1.10629C58.4967 0.493743 56.8563 0.34104 55.2775 0.667809C53.6987 0.994577 52.2537 1.78589 51.1283 2.94005C49.7485 4.32019 48.1103 5.41502 46.3072 6.16199C44.5042 6.90896 42.5715 7.29343 40.6198 7.29343C38.6681 7.29343 36.7354 6.90896 34.9324 6.16199C33.1293 5.41502 31.4911 4.32019 30.1113 2.94005C28.9749 1.80498 27.5273 1.03224 25.9517 0.71951C24.376 0.406782 22.743 0.568103 21.2591 1.18308C19.7751 1.79806 18.5068 2.83909 17.6145 4.17457C16.7222 5.51006 16.246 7.08005 16.246 8.68609C16.246 10.2921 16.7222 11.8621 17.6145 13.1976C18.5068 14.5331 19.7751 15.5741 21.2591 16.1891C22.743 16.8041 24.376 16.9654 25.9517 16.6527C27.5273 16.3399 28.9749 15.5672 30.1113 14.4321C31.4905 13.051 33.1286 11.9553 34.9317 11.2078C36.7349 10.4602 38.6678 10.0754 40.6198 10.0754C42.5718 10.0754 44.5047 10.4602 46.3079 11.2078C48.111 11.9553 49.7491 13.051 51.1283 14.4321C53.9142 17.2191 55.4793 20.998 55.4793 24.9383C55.4793 28.8785 53.9142 32.6574 51.1283 35.4444C49.7491 36.8255 48.111 37.9212 46.3079 38.6688C44.5047 39.4163 42.5718 39.8011 40.6198 39.8011C38.6678 39.8011 36.7349 39.4163 34.9317 38.6688C33.1286 37.9212 31.4905 36.8255 30.1113 35.4444C28.9749 34.3054 27.5259 33.5292 25.9479 33.2139C24.37 32.8986 22.7339 33.0585 21.2469 33.6733C19.7598 34.2881 18.4886 35.3301 17.5942 36.6675C16.6998 38.0049 16.2224 39.5776 16.2224 41.1864C16.2224 42.7952 16.6998 44.3679 17.5942 45.7053C18.4886 47.0427 19.7598 48.0847 21.2469 48.6995C22.7339 49.3143 24.37 49.4742 25.9479 49.1589C27.5259 48.8436 28.9749 48.0674 30.1113 46.9284C32.8989 44.143 36.6787 42.5784 40.6198 42.5784C44.5609 42.5784 48.3407 44.143 51.1283 46.9284C52.2561 48.0852 53.7048 48.8774 55.2875 49.203C56.8701 49.5286 58.514 49.3725 60.007 48.7549C61.5001 48.1373 62.7737 47.0865 63.6636 45.7381C64.5535 44.3898 65.0188 42.8057 64.9994 41.1904C65.0024 40.1232 64.7939 39.066 64.386 38.0798C63.9781 37.0935 63.3789 36.1978 62.6229 35.4444C61.2342 34.0646 60.1321 32.4239 59.3801 30.6167C58.628 28.8095 58.2408 26.8714 58.2408 24.914C58.2408 22.9566 58.628 21.0186 59.3801 19.2113C60.1321 17.4041 61.2342 15.7634 62.6229 14.3836Z" fill="#0097A9"/>
<path d="M40.6279 49.2559C39.5604 49.2529 38.503 49.4614 37.5165 49.8692C36.5301 50.277 35.6342 50.8761 34.8806 51.6319C33.5014 53.013 31.8633 54.1087 30.0602 54.8563C28.257 55.6038 26.3242 55.9886 24.3721 55.9886C22.4201 55.9886 20.4872 55.6038 18.684 54.8563C16.8809 54.1087 15.2428 53.013 13.8637 51.6319C12.4822 50.253 11.3863 48.6154 10.6386 46.8126C9.89084 45.0099 9.50596 43.0774 9.50596 41.1258C9.50596 39.1742 9.89084 37.2417 10.6386 35.439C11.3863 33.6362 12.4822 31.9985 13.8637 30.6197C15.2428 29.2385 16.8809 28.1429 18.684 27.3953C20.4872 26.6477 22.4201 26.2629 24.3721 26.2629C26.3242 26.2629 28.257 26.6477 30.0602 27.3953C31.8633 28.1429 33.5014 29.2385 34.8806 30.6197C36.0171 31.7586 37.466 32.5349 39.044 32.8501C40.6219 33.1654 42.258 33.0055 43.745 32.3908C45.2321 31.776 46.5033 30.7339 47.3977 29.3965C48.2921 28.0591 48.7695 26.4865 48.7695 24.8776C48.7695 23.2688 48.2921 21.6962 47.3977 20.3588C46.5033 19.0214 45.2321 17.9793 43.745 17.3645C42.258 16.7498 40.6219 16.5899 39.044 16.9052C37.466 17.2204 36.0171 17.9967 34.8806 19.1356C32.093 21.921 28.3132 23.4857 24.3721 23.4857C20.431 23.4857 16.6512 21.921 13.8637 19.1356C12.7348 17.9812 11.2861 17.1913 9.70408 16.8676C8.12209 16.5439 6.47939 16.7014 4.98772 17.3196C3.49605 17.9379 2.22378 18.9887 1.3349 20.3365C0.446026 21.6843 -0.018717 23.2674 0.000577295 24.8817C0.00394805 25.9523 0.22006 27.0116 0.63636 27.998C1.05266 28.9844 1.66085 29.8783 2.42561 30.6277C5.21159 33.4147 6.7766 37.1936 6.7766 41.1339C6.7766 45.0741 5.21159 48.853 2.42561 51.64C1.66182 52.3885 1.05419 53.281 0.637917 54.266C0.221647 55.2509 0.00501712 56.3087 0.000577295 57.3779C0.00328279 58.9835 0.481389 60.5522 1.37462 61.8865C2.26784 63.2207 3.53619 64.2606 5.01976 64.8752C6.50332 65.4897 8.13567 65.6514 9.71099 65.3397C11.2863 65.0281 12.7341 64.2571 13.8717 63.124C15.2509 61.7429 16.889 60.6472 18.6921 59.8996C20.4953 59.1521 22.4282 58.7673 24.3802 58.7673C26.3322 58.7673 28.2651 59.1521 30.0683 59.8996C31.8714 60.6472 33.5095 61.7429 34.8887 63.124C35.8335 64.0677 36.9965 64.7639 38.2747 65.1511C39.5529 65.5382 40.9068 65.6044 42.2167 65.3436C43.5265 65.0829 44.7518 64.5033 45.7842 63.6561C46.8166 62.809 47.6241 61.7205 48.1353 60.4869C48.6465 59.2533 48.8457 57.9128 48.7151 56.5839C48.5846 55.2551 48.1283 53.9789 47.3868 52.8683C46.6452 51.7578 45.6413 50.8472 44.4637 50.2171C43.2862 49.587 41.9715 49.2569 40.636 49.2559H40.6279Z" fill="#65428A"/>
<path d="M94.8711 54.0859C92.4102 54.0859 90.2031 53.6953 88.25 52.9141C86.2969 52.1133 84.6367 51.0098 83.2695 49.6035C81.9219 48.1973 80.8867 46.5664 80.1641 44.7109C79.4414 42.8359 79.0801 40.8438 79.0801 38.7344V37.5625C79.0801 35.1602 79.4219 32.9629 80.1055 30.9707C80.7891 28.9785 81.7656 27.25 83.0352 25.7852C84.3242 24.3203 85.8867 23.1973 87.7227 22.416C89.5586 21.6152 91.6289 21.2148 93.9336 21.2148C96.1797 21.2148 98.1719 21.5859 99.9102 22.3281C101.648 23.0703 103.104 24.125 104.275 25.4922C105.467 26.8594 106.365 28.5 106.971 30.4141C107.576 32.3086 107.879 34.418 107.879 36.7422V40.2578H82.6836V34.6328H99.5879V33.9883C99.5879 32.8164 99.373 31.7715 98.9434 30.8535C98.5332 29.916 97.9082 29.1738 97.0684 28.627C96.2285 28.0801 95.1543 27.8066 93.8457 27.8066C92.7324 27.8066 91.7754 28.0508 90.9746 28.5391C90.1738 29.0273 89.5195 29.7109 89.0117 30.5898C88.5234 31.4688 88.1523 32.5039 87.8984 33.6953C87.6641 34.8672 87.5469 36.1562 87.5469 37.5625V38.7344C87.5469 40.0039 87.7227 41.1758 88.0742 42.25C88.4453 43.3242 88.9629 44.252 89.627 45.0332C90.3105 45.8145 91.1309 46.4199 92.0879 46.8496C93.0645 47.2793 94.168 47.4941 95.3984 47.4941C96.9219 47.4941 98.3379 47.2012 99.6465 46.6152C100.975 46.0098 102.117 45.1016 103.074 43.8906L107.176 48.3438C106.512 49.3008 105.604 50.2188 104.451 51.0977C103.318 51.9766 101.951 52.6992 100.35 53.2656C98.748 53.8125 96.9219 54.0859 94.8711 54.0859ZM119.48 21.8008L124.725 31.4395L130.115 21.8008H139.109L130.145 37.2988L139.52 53.5H130.496L124.783 43.3047L119.07 53.5H110.047L119.422 37.2988L110.457 21.8008H119.48ZM161.346 46.5859V8.5H169.842V53.5H162.195L161.346 46.5859ZM141.307 38.0312V37.416C141.307 34.9941 141.58 32.7969 142.127 30.8242C142.674 28.832 143.475 27.123 144.529 25.6973C145.584 24.2715 146.883 23.168 148.426 22.3867C149.969 21.6055 151.727 21.2148 153.699 21.2148C155.555 21.2148 157.176 21.6055 158.562 22.3867C159.969 23.168 161.16 24.2812 162.137 25.7266C163.133 27.1523 163.934 28.8418 164.539 30.7949C165.145 32.7285 165.584 34.8477 165.857 37.1523V38.5C165.584 40.707 165.145 42.7578 164.539 44.6523C163.934 46.5469 163.133 48.207 162.137 49.6328C161.16 51.0391 159.969 52.1328 158.562 52.9141C157.156 53.6953 155.516 54.0859 153.641 54.0859C151.668 54.0859 149.91 53.6855 148.367 52.8848C146.844 52.084 145.555 50.9609 144.5 49.5156C143.465 48.0703 142.674 46.3711 142.127 44.418C141.58 42.4648 141.307 40.3359 141.307 38.0312ZM149.744 37.416V38.0312C149.744 39.3398 149.842 40.5605 150.037 41.6934C150.252 42.8262 150.594 43.832 151.062 44.7109C151.551 45.5703 152.176 46.2441 152.938 46.7324C153.719 47.2012 154.666 47.4355 155.779 47.4355C157.225 47.4355 158.416 47.1133 159.354 46.4688C160.291 45.8047 161.004 44.8965 161.492 43.7441C162 42.5918 162.293 41.2637 162.371 39.7598V35.9219C162.312 34.6914 162.137 33.5879 161.844 32.6113C161.57 31.6152 161.16 30.7656 160.613 30.0625C160.086 29.3594 159.422 28.8125 158.621 28.4219C157.84 28.0312 156.912 27.8359 155.838 27.8359C154.744 27.8359 153.807 28.0898 153.025 28.5977C152.244 29.0859 151.609 29.7598 151.121 30.6191C150.652 31.4785 150.301 32.4941 150.066 33.666C149.852 34.8184 149.744 36.0684 149.744 37.416ZM191.023 54.0859C188.562 54.0859 186.355 53.6953 184.402 52.9141C182.449 52.1133 180.789 51.0098 179.422 49.6035C178.074 48.1973 177.039 46.5664 176.316 44.7109C175.594 42.8359 175.232 40.8438 175.232 38.7344V37.5625C175.232 35.1602 175.574 32.9629 176.258 30.9707C176.941 28.9785 177.918 27.25 179.188 25.7852C180.477 24.3203 182.039 23.1973 183.875 22.416C185.711 21.6152 187.781 21.2148 190.086 21.2148C192.332 21.2148 194.324 21.5859 196.062 22.3281C197.801 23.0703 199.256 24.125 200.428 25.4922C201.619 26.8594 202.518 28.5 203.123 30.4141C203.729 32.3086 204.031 34.418 204.031 36.7422V40.2578H178.836V34.6328H195.74V33.9883C195.74 32.8164 195.525 31.7715 195.096 30.8535C194.686 29.916 194.061 29.1738 193.221 28.627C192.381 28.0801 191.307 27.8066 189.998 27.8066C188.885 27.8066 187.928 28.0508 187.127 28.5391C186.326 29.0273 185.672 29.7109 185.164 30.5898C184.676 31.4688 184.305 32.5039 184.051 33.6953C183.816 34.8672 183.699 36.1562 183.699 37.5625V38.7344C183.699 40.0039 183.875 41.1758 184.227 42.25C184.598 43.3242 185.115 44.252 185.779 45.0332C186.463 45.8145 187.283 46.4199 188.24 46.8496C189.217 47.2793 190.32 47.4941 191.551 47.4941C193.074 47.4941 194.49 47.2012 195.799 46.6152C197.127 46.0098 198.27 45.1016 199.227 43.8906L203.328 48.3438C202.664 49.3008 201.756 50.2188 200.604 51.0977C199.471 51.9766 198.104 52.6992 196.502 53.2656C194.9 53.8125 193.074 54.0859 191.023 54.0859ZM219.207 47.3477L226.238 21.8008H235.057L224.363 53.5H219.031L219.207 47.3477ZM214.373 21.8008L221.434 47.377L221.58 53.5H216.219L205.525 21.8008H214.373Z" fill="#333333"/>
</svg>
