<svg width="59" height="59" viewBox="0 0 59 59" fill="none" xmlns="http://www.w3.org/2000/svg">
<g clip-path="url(#clip0_24_65)">
<path fill-rule="evenodd" clip-rule="evenodd" d="M17.6272 0.474805C20.7374 0.331623 21.7291 0.299805 29.6518 0.299805C37.5746 0.299805 38.5662 0.334274 41.6738 0.474805C44.7814 0.615335 46.9026 1.11117 48.7586 1.82973C50.7022 2.5642 52.4655 3.7123 53.9238 5.19715C55.4086 6.65283 56.5541 8.41344 57.2859 10.3597C58.0071 12.2157 58.5003 14.3369 58.6435 17.4392C58.7867 20.5547 58.8185 21.5464 58.8185 29.4665C58.8185 37.3892 58.784 38.3809 58.6435 41.4911C58.503 44.5934 58.0071 46.7146 57.2859 48.5706C56.5541 50.5171 55.4067 52.2806 53.9238 53.7384C52.4655 55.2233 50.7022 56.3687 48.7586 57.1006C46.9026 57.8218 44.7814 58.315 41.6791 58.4581C38.5662 58.6013 37.5746 58.6331 29.6518 58.6331C21.7291 58.6331 20.7374 58.5987 17.6272 58.4581C14.5249 58.3176 12.4037 57.8218 10.5477 57.1006C8.60124 56.3686 6.83772 55.2213 5.37987 53.7384C3.89602 52.2819 2.74775 50.5192 2.01509 48.5733C1.29653 46.7172 0.80335 44.596 0.660168 41.4937C0.516987 38.3782 0.485168 37.3865 0.485168 29.4665C0.485168 21.5437 0.519638 20.5521 0.660168 17.4445C0.800699 14.3369 1.29653 12.2157 2.01509 10.3597C2.74883 8.41366 3.89798 6.65101 5.38252 5.1945C6.83831 3.71098 8.60006 2.56272 10.545 1.82973C12.4011 1.11117 14.5223 0.617986 17.6246 0.474805H17.6272ZM41.4378 5.7248C38.3621 5.58427 37.4393 5.55511 29.6518 5.55511C21.8643 5.55511 20.9416 5.58427 17.8658 5.7248C15.0208 5.85473 13.4776 6.32935 12.4488 6.72973C11.0886 7.26003 10.1155 7.88844 9.09464 8.90928C8.12695 9.8507 7.38224 10.9968 6.91509 12.2634C6.51471 13.2922 6.04009 14.8354 5.91017 17.6805C5.76964 20.7562 5.74047 21.679 5.74047 29.4665C5.74047 37.254 5.76964 38.1767 5.91017 41.2525C6.04009 44.0975 6.51471 45.6407 6.91509 46.6695C7.38176 47.9343 8.12684 49.0824 9.09464 50.0237C10.0359 50.9915 11.184 51.7365 12.4488 52.2032C13.4776 52.6036 15.0208 53.0782 17.8658 53.2081C20.9416 53.3487 21.8617 53.3778 29.6518 53.3778C37.442 53.3778 38.3621 53.3487 41.4378 53.2081C44.2829 53.0782 45.8261 52.6036 46.8549 52.2032C48.2151 51.6729 49.1882 51.0445 50.209 50.0237C51.1768 49.0824 51.9219 47.9343 52.3886 46.6695C52.789 45.6407 53.2636 44.0975 53.3935 41.2525C53.534 38.1767 53.5632 37.254 53.5632 29.4665C53.5632 21.679 53.534 20.7562 53.3935 17.6805C53.2636 14.8354 52.789 13.2922 52.3886 12.2634C51.8583 10.9032 51.2299 9.93011 50.209 8.90928C49.2675 7.94166 48.1215 7.19695 46.8549 6.72973C45.8261 6.32935 44.2829 5.85473 41.4378 5.7248ZM25.9265 38.4578C28.007 39.3238 30.3237 39.4407 32.4808 38.7885C34.638 38.1362 36.5017 36.7553 37.7538 34.8815C39.0059 33.0078 39.5686 30.7574 39.3459 28.5149C39.1231 26.2723 38.1287 24.1766 36.5325 22.5858C35.515 21.5689 34.2846 20.7902 32.93 20.3059C31.5754 19.8215 30.1302 19.6436 28.6986 19.7848C27.267 19.926 25.8844 20.3829 24.6506 21.1225C23.4167 21.8621 22.3621 22.8662 21.5629 24.0623C20.7636 25.2584 20.2395 26.6169 20.0282 28.0399C19.8169 29.4628 19.9238 30.915 20.3411 32.2917C20.7585 33.6684 21.4758 34.9355 22.4416 36.0017C23.4074 37.0679 24.5976 37.9067 25.9265 38.4578ZM19.0511 18.8657C20.4432 17.4736 22.0959 16.3693 23.9147 15.6159C25.7336 14.8625 27.6831 14.4747 29.6518 14.4747C31.6206 14.4747 33.57 14.8625 35.3889 15.6159C37.2078 16.3693 38.8605 17.4736 40.2526 18.8657C41.6447 20.2578 42.749 21.9105 43.5024 23.7294C44.2558 25.5483 44.6436 27.4977 44.6436 29.4665C44.6436 31.4352 44.2558 33.3847 43.5024 35.2036C42.749 37.0224 41.6447 38.6751 40.2526 40.0672C37.4411 42.8787 33.6279 44.4582 29.6518 44.4582C25.6758 44.4582 21.8626 42.8787 19.0511 40.0672C16.2396 37.2557 14.6601 33.4425 14.6601 29.4665C14.6601 25.4904 16.2396 21.6772 19.0511 18.8657ZM47.9685 16.7074C48.3135 16.382 48.5896 15.9906 48.7807 15.5566C48.9717 15.1225 49.0737 14.6545 49.0806 14.1803C49.0875 13.7061 48.9992 13.2353 48.8209 12.7959C48.6426 12.3564 48.378 11.9572 48.0426 11.6219C47.7073 11.2865 47.3081 11.0219 46.8686 10.8436C46.4292 10.6653 45.9584 10.577 45.4842 10.5839C45.01 10.5908 44.542 10.6928 44.108 10.8838C43.6739 11.0749 43.2826 11.351 42.9571 11.696C42.3242 12.3669 41.9777 13.2581 41.9912 14.1803C42.0046 15.1025 42.377 15.9832 43.0291 16.6354C43.6813 17.2875 44.562 17.6599 45.4842 17.6733C46.4064 17.6868 47.2976 17.3403 47.9685 16.7074Z" fill="white"/>
</g>
<defs>
<clipPath id="clip0_24_65">
<rect width="58.3333" height="58.3333" fill="white" transform="translate(0.599976 0.299805)"/>
</clipPath>
</defs>
</svg>
