<svg width="59" height="59" viewBox="0 0 59 59" fill="none" xmlns="http://www.w3.org/2000/svg">
<g clip-path="url(#clip0_24_57)">
<path fill-rule="evenodd" clip-rule="evenodd" d="M29.1667 0.299805C13.0521 0.299805 0 13.3519 0 29.4665C0 42.3727 8.34896 53.2738 19.9427 57.1383C21.401 57.3936 21.9479 56.5186 21.9479 55.7529C21.9479 55.0602 21.9115 52.7633 21.9115 50.3206C14.5833 51.6696 12.6875 48.5342 12.1042 46.8936C11.776 46.055 10.3542 43.4665 9.11458 42.7738C8.09375 42.2269 6.63542 40.8779 9.07812 40.8415C11.375 40.805 13.0156 42.9561 13.5625 43.8311C16.1875 48.2425 20.3802 47.0029 22.0573 46.2373C22.3125 44.3415 23.0781 43.0654 23.9167 42.3363C17.4271 41.6071 10.6458 39.0915 10.6458 27.9352C10.6458 24.7633 11.776 22.1383 13.6354 20.0967C13.3438 19.3675 12.3229 16.3779 13.9271 12.3675C13.9271 12.3675 16.3698 11.6019 21.9479 15.3571C24.2812 14.7008 26.7604 14.3727 29.2396 14.3727C31.7188 14.3727 34.1979 14.7008 36.5312 15.3571C42.1094 11.5654 44.5521 12.3675 44.5521 12.3675C46.1562 16.3779 45.1354 19.3675 44.8438 20.0967C46.7031 22.1383 47.8333 24.7269 47.8333 27.9352C47.8333 39.1279 41.0156 41.6071 34.526 42.3363C35.5833 43.2477 36.4948 44.9977 36.4948 47.7321C36.4948 51.6331 36.4583 54.7686 36.4583 55.7529C36.4583 56.5186 37.0052 57.43 38.4635 57.1383C44.2536 55.1835 49.2848 51.4622 52.8492 46.4983C56.4136 41.5343 58.3316 35.5776 58.3333 29.4665C58.3333 13.3519 45.2812 0.299805 29.1667 0.299805Z" fill="white"/>
</g>
<defs>
<clipPath id="clip0_24_57">
<rect width="58.3333" height="58.3333" fill="white" transform="translate(0 0.299805)"/>
</clipPath>
</defs>
</svg>
