<svg width="59" height="59" viewBox="0 0 59 59" fill="none" xmlns="http://www.w3.org/2000/svg">
<g clip-path="url(#clip0_24_61)">
<path fill-rule="evenodd" clip-rule="evenodd" d="M0.400024 29.6293C0.400024 44.13 10.9316 56.188 24.7056 58.6331V37.5675H17.4139V29.4665H24.7056V22.9842C24.7056 15.6925 29.4038 11.6432 36.049 11.6432C38.1538 11.6432 40.424 11.9665 42.5288 12.2897V19.7442H38.8028C35.2372 19.7442 34.4278 21.5258 34.4278 23.796V29.4665H42.2056L40.9101 37.5675H34.4278V58.6331C48.2018 56.188 58.7334 44.1324 58.7334 29.6293C58.7334 13.4977 45.6084 0.299805 29.5667 0.299805C13.525 0.299805 0.400024 13.4977 0.400024 29.6293Z" fill="white"/>
</g>
<defs>
<clipPath id="clip0_24_61">
<rect width="58.3333" height="58.3333" fill="white" transform="translate(0.400024 0.299805)"/>
</clipPath>
</defs>
</svg>
