<svg width="72" height="58" viewBox="0 0 72 58" fill="none" xmlns="http://www.w3.org/2000/svg">
<path d="M71.3463 6.87986C68.7226 8.04247 65.9041 8.82801 62.941 9.18308C65.9983 7.35368 68.2857 4.47442 69.3762 1.08254C66.5037 2.78871 63.36 3.98967 60.0816 4.6332C57.877 2.27929 54.9569 0.719071 51.7747 0.194791C48.5925 -0.329488 45.3262 0.2115 42.483 1.73376C39.6398 3.25603 37.3787 5.6744 36.0507 8.61341C34.7228 11.5524 34.4023 14.8476 35.139 17.9875C29.3187 17.6952 23.6249 16.1824 18.4271 13.5473C13.2293 10.9121 8.64364 7.21344 4.96779 2.69133C3.71091 4.85944 2.98821 7.37318 2.98821 10.0503C2.98681 12.4604 3.5803 14.8335 4.71603 16.9591C5.85176 19.0848 7.49461 20.8972 9.49881 22.2357C7.17446 22.1617 4.9014 21.5337 2.86881 20.4038V20.5923C2.86858 23.9725 4.0378 27.2487 6.1781 29.8649C8.3184 32.4811 11.2979 34.2763 14.6111 34.9458C12.4549 35.5294 10.1943 35.6153 7.99999 35.1972C8.93478 38.1056 10.7557 40.6489 13.2077 42.4711C15.6598 44.2932 18.6203 45.303 21.6748 45.359C16.4896 49.4294 10.086 51.6373 3.4941 51.6276C2.32641 51.6279 1.1597 51.5598 0 51.4234C6.6912 55.7256 14.4802 58.0088 22.4352 58C49.3636 58 64.0848 35.6968 64.0848 16.3535C64.0848 15.7251 64.069 15.0904 64.0408 14.4619C66.9042 12.3912 69.3759 9.8269 71.3401 6.88929L71.3463 6.87986V6.87986Z" fill="white"/>
</svg>
