<svg width="60" height="59" viewBox="0 0 60 59" fill="none" xmlns="http://www.w3.org/2000/svg">
<path fill-rule="evenodd" clip-rule="evenodd" d="M3.23053 7.19784C3.23053 6.01302 3.7012 4.87673 4.53899 4.03893C5.37678 3.20114 6.51307 2.73047 7.69789 2.73047H52.2305C52.8177 2.72952 53.3993 2.84438 53.942 3.06848C54.4847 3.29259 54.9779 3.62154 55.3933 4.0365C55.8087 4.45146 56.1382 4.94428 56.3629 5.48675C56.5876 6.02922 56.7031 6.61067 56.7028 7.19784V51.7305C56.7034 52.3178 56.5882 52.8994 56.3639 53.4421C56.1395 53.9848 55.8103 54.478 55.3952 54.8934C54.98 55.3088 54.487 55.6382 53.9444 55.8629C53.4018 56.0875 52.8202 56.203 52.233 56.2027H7.69789C7.11102 56.2027 6.52991 56.0871 5.98774 55.8624C5.44558 55.6378 4.953 55.3085 4.53813 54.8934C4.12327 54.4783 3.79425 53.9855 3.56989 53.4432C3.34553 52.901 3.23021 52.3198 3.23053 51.7329V7.19784ZM24.3958 23.118H31.6364V26.7541C32.6816 24.6638 35.3552 22.7826 39.3729 22.7826C47.0753 22.7826 48.9007 26.9461 48.9007 34.5853V48.736H41.1059V36.3256C41.1059 31.9749 40.0607 29.5201 37.4066 29.5201C33.7243 29.5201 32.193 32.1669 32.193 36.3256V48.736H24.3958V23.118ZM11.0278 48.403H18.825V22.7826H11.0278V48.4006V48.403ZM19.9406 14.4263C19.9553 15.0939 19.8365 15.7577 19.5912 16.3788C19.3459 16.9999 18.979 17.5657 18.512 18.0431C18.045 18.5204 17.4874 18.8997 16.8719 19.1586C16.2564 19.4176 15.5953 19.5509 14.9276 19.5509C14.2598 19.5509 13.5988 19.4176 12.9832 19.1586C12.3677 18.8997 11.8101 18.5204 11.3432 18.0431C10.8762 17.5657 10.5093 16.9999 10.264 16.3788C10.0187 15.7577 9.89986 15.0939 9.91456 14.4263C9.94341 13.1159 10.4842 11.8689 11.4212 10.9523C12.3582 10.0357 13.6168 9.52246 14.9276 9.52246C16.2383 9.52246 17.497 10.0357 18.4339 10.9523C19.3709 11.8689 19.9117 13.1159 19.9406 14.4263Z" fill="white"/>
</svg>
