<svg width="70" height="70" viewBox="0 0 70 70" fill="none" xmlns="http://www.w3.org/2000/svg">
<path d="M55.4166 11.6665H14.5833C12.2627 11.6665 10.0371 12.5884 8.39613 14.2293C6.75519 15.8703 5.83331 18.0959 5.83331 20.4165V49.5832C5.83331 51.9038 6.75519 54.1294 8.39613 55.7703C10.0371 57.4113 12.2627 58.3332 14.5833 58.3332H55.4166C57.7373 58.3332 59.9629 57.4113 61.6038 55.7703C63.2448 54.1294 64.1666 51.9038 64.1666 49.5832V20.4165C64.1666 18.0959 63.2448 15.8703 61.6038 14.2293C59.9629 12.5884 57.7373 11.6665 55.4166 11.6665ZM53.4625 17.4998L35 31.354L16.5375 17.4998H53.4625ZM55.4166 52.4998H14.5833C13.8098 52.4998 13.0679 52.1925 12.5209 51.6456C11.9739 51.0986 11.6666 50.3567 11.6666 49.5832V21.1457L33.25 37.3332C33.7548 37.7118 34.3689 37.9165 35 37.9165C35.6311 37.9165 36.2451 37.7118 36.75 37.3332L58.3333 21.1457V49.5832C58.3333 50.3567 58.026 51.0986 57.479 51.6456C56.9321 52.1925 56.1902 52.4998 55.4166 52.4998Z" fill="#F1F1F1"/>
</svg>
