<svg width="363" height="100" viewBox="0 0 363 100" fill="none" xmlns="http://www.w3.org/2000/svg">
<g clip-path="url(#clip0_24_15)">
<path d="M96.2588 21.3406C97.4208 20.1812 98.3419 18.8029 98.9689 17.2853C99.5959 15.7676 99.9164 14.1407 99.9118 12.4985V12.4985C99.929 10.0181 99.2047 7.58922 97.832 5.52403C96.4593 3.45884 94.501 1.85167 92.2086 0.909058C89.9163 -0.0335537 87.3947 -0.268538 84.9679 0.234303C82.5411 0.737144 80.32 1.95483 78.59 3.73089C76.4692 5.8547 73.951 7.53946 71.1795 8.68891C68.4079 9.83837 65.4372 10.43 62.4371 10.43C59.437 10.43 56.4663 9.83837 53.6948 8.68891C50.9232 7.53946 48.4051 5.8547 46.2842 3.73089C44.5373 1.98421 42.3123 0.795098 39.8903 0.313863C37.4683 -0.167373 34.9581 0.0808727 32.6771 1.02722C30.396 1.97357 28.4465 3.57553 27.0749 5.63062C25.7034 7.6857 24.9713 10.1016 24.9713 12.5731C24.9713 15.0445 25.7034 17.4604 27.0749 19.5155C28.4465 21.5706 30.396 23.1726 32.6771 24.1189C34.9581 25.0653 37.4683 25.3135 39.8903 24.8323C42.3123 24.351 44.5373 23.1619 46.2842 21.4153C48.4042 19.29 50.9221 17.6039 53.6938 16.4535C56.4655 15.3031 59.4366 14.711 62.4371 14.711C65.4377 14.711 68.4088 15.3031 71.1804 16.4535C73.9521 17.6039 76.47 19.29 78.59 21.4153C82.8724 25.7039 85.278 31.5191 85.278 37.5824C85.278 43.6457 82.8724 49.4609 78.59 53.7495C76.47 55.8748 73.9521 57.5609 71.1804 58.7113C68.4088 59.8617 65.4377 60.4538 62.4371 60.4538C59.4366 60.4538 56.4655 59.8617 53.6938 58.7113C50.9221 57.5609 48.4042 55.8748 46.2842 53.7495C44.5373 51.9969 42.3101 50.8024 39.8845 50.3172C37.459 49.832 34.9441 50.0781 32.6584 51.0241C30.3726 51.9701 28.4186 53.5737 27.0438 55.6317C25.669 57.6898 24.9351 60.1098 24.9351 62.5855C24.9351 65.0612 25.669 67.4812 27.0438 69.5393C28.4186 71.5973 30.3726 73.2009 32.6584 74.1469C34.9441 75.0929 37.459 75.339 39.8845 74.8538C42.3101 74.3686 44.5373 73.1741 46.2842 71.4215C50.5691 67.1353 56.3791 64.7275 62.4371 64.7275C68.4951 64.7275 74.3051 67.1353 78.59 71.4215C80.3237 73.2015 82.5505 74.4207 84.9832 74.9217C87.416 75.4227 89.9428 75.1825 92.2378 74.2321C94.5328 73.2817 96.4906 71.6647 97.8584 69.5899C99.2263 67.515 99.9415 65.0774 99.9118 62.5917V62.5917C99.9164 60.9495 99.5959 59.3226 98.9689 57.8049C98.3419 56.2873 97.4208 54.909 96.2588 53.7495C94.1241 51.6263 92.4301 49.1016 91.2741 46.3206C90.1181 43.5395 89.523 40.5572 89.523 37.5451C89.523 34.533 90.1181 31.5506 91.2741 28.7696C92.4301 25.9886 94.1241 23.4639 96.2588 21.3406Z" fill="white"/>
<path d="M62.4495 75.003C60.8087 74.9985 59.1832 75.3192 57.6669 75.9467C56.1506 76.5743 54.7735 77.4962 53.6151 78.6593C51.4951 80.7846 48.9773 82.4707 46.2056 83.621C43.4339 84.7714 40.4628 85.3636 37.4623 85.3636C34.4617 85.3636 31.4906 84.7714 28.7189 83.621C25.9472 82.4707 23.4294 80.7846 21.3094 78.6593V78.6593C19.186 76.5374 17.5014 74.0173 16.352 71.2432C15.2026 68.4691 14.611 65.4953 14.611 62.4922C14.611 59.489 15.2026 56.5152 16.352 53.7411C17.5014 50.967 19.186 48.4469 21.3094 46.325V46.325C23.4294 44.1997 25.9472 42.5137 28.7189 41.3633C31.4906 40.2129 34.4617 39.6207 37.4623 39.6207C40.4628 39.6207 43.4339 40.2129 46.2056 41.3633C48.9773 42.5137 51.4951 44.1997 53.6151 46.325C55.3621 48.0777 57.5893 49.2722 60.0148 49.7573C62.4404 50.2425 64.9552 49.9965 67.241 49.0504C69.5268 48.1044 71.4807 46.5009 72.8556 44.4428C74.2304 42.3848 74.9642 39.9647 74.9642 37.489C74.9642 35.0134 74.2304 32.5933 72.8556 30.5353C71.4807 28.4772 69.5268 26.8737 67.241 25.9276C64.9552 24.9816 62.4404 24.7356 60.0148 25.2207C57.5893 25.7059 55.3621 26.9004 53.6151 28.6531C49.3303 32.9393 43.5202 35.347 37.4623 35.347C31.4043 35.347 25.5942 32.9393 21.3094 28.6531C19.5742 26.8766 17.3473 25.661 14.9156 25.1629C12.4838 24.6648 9.95878 24.9071 7.66589 25.8585C5.373 26.81 3.41735 28.4269 2.05103 30.501C0.684713 32.575 -0.0296579 35.0111 -1.53995e-08 37.4953V37.4953C0.00518128 39.1428 0.337374 40.7728 0.977282 42.2907C1.61719 43.8087 2.55206 45.1842 3.72759 46.3374C8.01001 50.6261 10.4156 56.4413 10.4156 62.5046C10.4156 68.5679 8.01001 74.3831 3.72759 78.6717C2.55354 79.8235 1.61953 81.197 0.979674 82.7127C0.339814 84.2284 0.00682458 85.8561 -1.53995e-08 87.5015V87.5015C0.00415869 89.9721 0.739071 92.3861 2.11208 94.4393C3.48508 96.4924 5.43471 98.0927 7.71514 99.0384C9.99557 99.9841 12.5047 100.233 14.9262 99.7533C17.3477 99.2737 19.5731 98.0873 21.3218 96.3437C23.4418 94.2184 25.9597 92.5323 28.7313 91.3819C31.503 90.2315 34.4741 89.6394 37.4747 89.6394C40.4752 89.6394 43.4463 90.2315 46.218 91.3819C48.9897 92.5323 51.5076 94.2184 53.6276 96.3437C55.0799 97.7958 56.8676 98.8672 58.8323 99.463C60.7971 100.059 62.8783 100.161 64.8917 99.7593C66.9051 99.358 68.7886 98.4661 70.3754 97.1625C71.9623 95.8589 73.2036 94.1839 73.9894 92.2856C74.7752 90.3874 75.0813 88.3245 74.8806 86.2796C74.6799 84.2347 73.9786 82.2709 72.8388 80.562C71.6989 78.853 70.1557 77.4517 68.3457 76.4821C66.5358 75.5125 64.5149 75.0045 62.4619 75.003H62.4495Z" fill="white"/>
<path d="M129.571 28.1681C128.453 27.6098 127.514 26.7478 126.862 25.6808C126.199 24.5876 125.858 23.3285 125.881 22.0495C125.861 20.7814 126.201 19.5337 126.861 18.4509C127.521 17.3681 128.473 16.4943 129.608 15.9308C130.818 15.3105 132.163 14.9987 133.522 15.023C134.823 14.9949 136.108 15.3079 137.25 15.9308C138.3 16.5 139.127 17.407 139.598 18.5051L136.529 20.1467C136.248 19.5744 135.811 19.0938 135.267 18.7613C134.724 18.4287 134.097 18.2579 133.46 18.2688C132.987 18.2569 132.516 18.3411 132.076 18.5164C131.636 18.6917 131.236 18.9543 130.9 19.2886C130.555 19.6566 130.287 20.0911 130.114 20.5657C129.941 21.0402 129.866 21.545 129.894 22.0495C129.865 22.5559 129.939 23.0631 130.112 23.5399C130.285 24.0167 130.553 24.4533 130.9 24.8227C131.237 25.1553 131.637 25.4161 132.077 25.5893C132.517 25.7625 132.988 25.8444 133.46 25.8301C134.098 25.8456 134.727 25.6767 135.271 25.3436C135.815 25.0105 136.252 24.5274 136.529 23.9522L139.598 25.6311C139.102 26.6907 138.279 27.5626 137.25 28.1184C136.108 28.7412 134.823 29.0542 133.522 29.0262C132.155 29.0659 130.799 28.7714 129.571 28.1681V28.1681Z" fill="white"/>
<path d="M141.773 10.0361H145.736V28.8646H141.773V10.0361Z" fill="white"/>
<path d="M163.144 15.2219V28.9018H159.417V27.2851C158.889 27.861 158.239 28.3114 157.515 28.6033C156.768 28.9176 155.965 29.0743 155.155 29.0635C154.379 29.1055 153.603 28.9906 152.873 28.7256C152.143 28.4607 151.474 28.0511 150.905 27.5214C150.344 26.9042 149.915 26.1789 149.643 25.3898C149.372 24.6007 149.264 23.7645 149.327 22.9324V15.2219H153.278V22.3852C153.278 24.5864 154.21 25.6808 156.049 25.6808C156.474 25.697 156.896 25.6233 157.29 25.4647C157.684 25.3062 158.04 25.0662 158.335 24.7605C158.96 23.9821 159.267 22.9954 159.193 21.9997V15.2219H163.144Z" fill="white"/>
<path d="M178.34 15.8936C179.388 16.47 180.249 17.3326 180.825 18.3809C181.445 19.5243 181.749 20.8118 181.707 22.1117C181.747 23.4115 181.443 24.6986 180.825 25.8426C180.249 26.8909 179.388 27.7535 178.34 28.3299C177.285 28.9178 176.094 29.218 174.886 29.2004C174.078 29.2446 173.271 29.1014 172.527 28.7822C171.784 28.4629 171.124 27.9762 170.599 27.3599V28.9268H166.872V10.0361H170.823V16.6647C171.347 16.1058 171.986 15.6682 172.697 15.3825C173.407 15.0968 174.171 14.9699 174.936 15.0106C176.128 15.0055 177.301 15.3097 178.34 15.8936V15.8936ZM176.7 24.798C177.373 24.0409 177.721 23.0491 177.669 22.0371C177.719 21.0292 177.371 20.0419 176.7 19.2887C176.38 18.9531 175.994 18.688 175.566 18.5102C175.138 18.3325 174.678 18.2461 174.215 18.2565C173.752 18.2437 173.291 18.3291 172.862 18.507C172.434 18.6848 172.048 18.9512 171.73 19.2887C171.393 19.6593 171.133 20.0929 170.964 20.5646C170.796 21.0364 170.723 21.5368 170.748 22.0371C170.722 22.5394 170.795 23.042 170.963 23.5159C171.131 23.9898 171.392 24.4256 171.73 24.798C172.049 25.1338 172.435 25.3983 172.863 25.5741C173.292 25.7499 173.752 25.8329 174.215 25.8178C174.677 25.8306 175.137 25.7464 175.565 25.5708C175.993 25.3952 176.38 25.132 176.7 24.798V24.798Z" fill="white"/>
<path d="M205.378 10.0361V28.8646H201.65V27.3598C201.122 27.9614 200.464 28.4335 199.725 28.7397C198.986 29.0459 198.186 29.178 197.388 29.1258C196.174 29.143 194.976 28.8475 193.909 28.2677C192.856 27.6988 191.993 26.8342 191.424 25.7804C190.806 24.6361 190.498 23.35 190.529 22.0496C190.498 20.7491 190.806 19.463 191.424 18.3187C191.996 17.2675 192.859 16.4038 193.909 15.8314C194.973 15.242 196.172 14.9418 197.388 14.9609C198.149 14.9187 198.91 15.0451 199.617 15.331C200.323 15.6169 200.958 16.0553 201.476 16.6149V10.0361H205.378ZM200.507 24.798C200.846 24.4262 201.109 23.9908 201.28 23.517C201.45 23.0431 201.525 22.5402 201.501 22.0371C201.524 21.536 201.449 21.0353 201.278 20.5636C201.108 20.0919 200.845 19.6586 200.507 19.2887C200.189 18.9512 199.803 18.6848 199.375 18.507C198.946 18.3291 198.485 18.2437 198.022 18.2565C197.559 18.2476 197.099 18.3347 196.671 18.5123C196.244 18.69 195.857 18.9543 195.537 19.2887C195.2 19.6593 194.94 20.0929 194.771 20.5646C194.603 21.0364 194.529 21.5368 194.555 22.0371C194.528 22.5394 194.601 23.042 194.77 23.5159C194.938 23.9898 195.199 24.4256 195.537 24.798C195.858 25.1307 196.245 25.3932 196.673 25.5687C197.1 25.7442 197.56 25.829 198.022 25.8178C198.484 25.8321 198.945 25.7487 199.373 25.573C199.801 25.3973 200.188 25.1332 200.507 24.798V24.798Z" fill="white"/>
<path d="M222.313 23.1564H211.988C212.155 23.9711 212.632 24.6889 213.317 25.1587C214.078 25.6741 214.984 25.9313 215.902 25.8924C216.545 25.9048 217.185 25.7994 217.791 25.5815C218.363 25.3532 218.883 25.0104 219.319 24.5742L221.419 26.8625C220.701 27.6229 219.824 28.2147 218.851 28.5953C217.878 28.9759 216.832 29.1359 215.79 29.0637C214.38 29.0909 212.984 28.7841 211.715 28.1683C210.582 27.6213 209.633 26.7573 208.981 25.681C208.327 24.5844 207.991 23.3268 208.012 22.0496C207.996 20.7826 208.327 19.5355 208.969 18.4431C209.59 17.3873 210.494 16.526 211.578 15.9558C212.711 15.3712 213.968 15.0662 215.243 15.0662C216.519 15.0662 217.775 15.3712 218.909 15.9558C219.959 16.5283 220.822 17.3919 221.394 18.4431C222.033 19.5808 222.354 20.8693 222.326 22.174C222.326 22.174 222.413 22.4973 222.313 23.1564ZM213.057 18.7664C212.439 19.2954 212.04 20.0359 211.938 20.8433H218.685C218.578 20.0411 218.18 19.3062 217.567 18.7789C216.942 18.2624 216.153 17.9887 215.343 18.0078C214.514 17.9734 213.701 18.2432 213.057 18.7664V18.7664Z" fill="white"/>
<path d="M246.083 10.0361V28.8646H242.355V27.3599C241.83 27.9612 241.174 28.4333 240.437 28.7395C239.7 29.0458 238.902 29.178 238.106 29.1258C236.888 29.1434 235.686 28.848 234.614 28.2677C233.562 27.6988 232.698 26.8342 232.129 25.7804C231.52 24.6333 231.216 23.3484 231.247 22.0496C231.219 20.751 231.523 19.4668 232.129 18.3187C232.701 17.2675 233.564 16.4038 234.614 15.8314C235.683 15.2415 236.886 14.9414 238.106 14.9609C238.865 14.9188 239.624 15.0453 240.329 15.3312C241.033 15.6172 241.666 16.0555 242.181 16.6149V10.0361H246.083ZM241.225 24.798C241.562 24.4256 241.823 23.9898 241.992 23.5159C242.16 23.042 242.233 22.5394 242.206 22.0371C242.232 21.5368 242.159 21.0364 241.99 20.5646C241.822 20.0929 241.561 19.6593 241.225 19.2887C240.562 18.6356 239.67 18.2694 238.74 18.2694C237.81 18.2694 236.917 18.6356 236.255 19.2887C235.916 19.6587 235.654 20.0919 235.483 20.5636C235.313 21.0353 235.237 21.5361 235.261 22.0371C235.236 22.5402 235.311 23.0431 235.482 23.517C235.653 23.9908 235.915 24.4262 236.255 24.798C236.92 25.4453 237.812 25.8073 238.74 25.8073C239.668 25.8073 240.559 25.4453 241.225 24.798V24.798Z" fill="white"/>
<path d="M263.019 23.1563H252.706C252.867 23.97 253.34 24.6884 254.023 25.1585C254.785 25.6716 255.69 25.9285 256.607 25.8923C257.25 25.9058 257.891 25.8004 258.496 25.5814C259.068 25.353 259.588 25.0103 260.024 24.574L262.174 26.8623C261.455 27.6206 260.578 28.211 259.605 28.5915C258.632 28.972 257.587 29.1331 256.545 29.0635C255.131 29.0908 253.731 28.7841 252.457 28.1681C251.327 27.6176 250.378 26.7545 249.724 25.6809C249.074 24.5829 248.742 23.3254 248.767 22.0495C248.747 20.7836 249.074 19.5364 249.711 18.443C250.333 17.3872 251.237 16.5259 252.32 15.9557C253.456 15.371 254.715 15.0659 255.992 15.0659C257.269 15.0659 258.528 15.371 259.664 15.9557C260.737 16.5185 261.622 17.383 262.211 18.443C262.838 19.5849 263.155 20.8712 263.13 22.1738C263.13 22.1738 263.068 22.4972 263.019 23.1563ZM253.762 18.7663C253.148 19.2965 252.753 20.0372 252.656 20.8432H259.366C259.263 20.0423 258.869 19.3074 258.26 18.7787C257.632 18.2595 256.837 17.9855 256.023 18.0077C255.203 17.9794 254.4 18.2488 253.762 18.7663V18.7663Z" fill="white"/>
<path d="M266.995 28.6033C266.083 28.3891 265.211 28.0324 264.41 27.5462L265.727 24.7108C266.416 25.1296 267.161 25.4479 267.939 25.6559C268.746 25.8951 269.582 26.0207 270.424 26.029C272.102 26.029 272.909 25.6062 272.909 24.7854C272.906 24.5883 272.837 24.398 272.713 24.2447C272.589 24.0915 272.418 23.9841 272.226 23.9397C271.538 23.7254 270.83 23.5836 270.113 23.5169C269.182 23.3844 268.26 23.1891 267.355 22.9324C266.635 22.7123 265.985 22.3096 265.466 21.7634C264.899 21.1027 264.613 20.2451 264.671 19.3756C264.66 18.5514 264.922 17.7467 265.417 17.0873C265.979 16.3704 266.733 15.8272 267.591 15.5204C268.677 15.1252 269.828 14.9354 270.983 14.9607C271.949 14.9638 272.911 15.0722 273.853 15.2841C274.686 15.4462 275.487 15.74 276.227 16.1546L274.91 18.9776C273.713 18.2978 272.359 17.946 270.983 17.9579C270.331 17.9172 269.678 18.0368 269.082 18.3061C268.902 18.3861 268.748 18.5144 268.636 18.6768C268.524 18.8392 268.459 19.0294 268.448 19.2264C268.446 19.4293 268.512 19.6272 268.636 19.7876C268.76 19.948 268.935 20.0615 269.132 20.1094C269.839 20.3414 270.567 20.5039 271.306 20.5944C272.233 20.7381 273.15 20.9375 274.052 21.1913C274.761 21.4057 275.4 21.8049 275.904 22.3479C276.458 22.9958 276.739 23.8344 276.686 24.6859C276.692 25.4999 276.425 26.2923 275.929 26.9369C275.344 27.6469 274.574 28.1807 273.704 28.479C272.594 28.86 271.424 29.0411 270.25 29.0137C269.152 29.0091 268.059 28.8713 266.995 28.6033V28.6033Z" fill="white"/>
<path d="M289.509 16.5277C290.123 17.1197 290.599 17.8404 290.902 18.6381C291.205 19.4358 291.328 20.2908 291.261 21.1415V28.9266H287.534V27.1731C287.078 27.8377 286.449 28.365 285.715 28.6981C284.982 29.0313 284.171 29.1576 283.371 29.0634C282.437 29.0852 281.51 28.9071 280.65 28.5411C279.932 28.2272 279.32 27.7135 278.886 27.0612C278.48 26.4268 278.269 25.6877 278.277 24.9346C278.256 24.3555 278.376 23.7799 278.627 23.2577C278.879 22.7355 279.253 22.2824 279.718 21.9375C281.038 21.11 282.588 20.7266 284.142 20.8431H287.285C287.309 20.4731 287.25 20.1023 287.113 19.7581C286.975 19.4138 286.762 19.1046 286.49 18.8533C285.818 18.3429 284.983 18.0953 284.142 18.1568C283.411 18.155 282.685 18.2726 281.992 18.5051C281.347 18.705 280.741 19.0164 280.203 19.4253L278.786 16.6645C279.6 16.1009 280.503 15.6803 281.458 15.4209C282.502 15.1327 283.58 14.9863 284.663 14.9856C286.414 14.8839 288.139 15.4331 289.509 16.5277V16.5277ZM286.142 25.9295C286.666 25.616 287.062 25.127 287.26 24.5491V23.1562H284.539C282.924 23.1562 282.054 23.691 282.054 24.7605C282.042 25.0012 282.09 25.2411 282.194 25.4583C282.298 25.6755 282.455 25.8632 282.651 26.0041C283.138 26.3181 283.712 26.4704 284.291 26.4394C284.961 26.4627 285.623 26.2852 286.192 25.9295H286.142Z" fill="white"/>
<path d="M300.518 15.5204C301.403 15.1683 302.349 14.995 303.301 15.0105V18.6543H302.419C301.933 18.6251 301.447 18.6937 300.988 18.8561C300.529 19.0184 300.107 19.2712 299.748 19.5995C299.406 19.9885 299.146 20.4419 298.981 20.9331C298.817 21.4243 298.752 21.9433 298.791 22.4598V28.9018H294.827V15.2219H298.555V17.0127C299.057 16.3415 299.737 15.8245 300.518 15.5204V15.5204Z" fill="white"/>
<path d="M311.353 15.5205C312.233 15.1672 313.175 14.9938 314.124 15.0106V18.6545C313.689 18.6545 313.391 18.6545 313.242 18.6545C312.756 18.626 312.269 18.6949 311.811 18.8572C311.352 19.0195 310.93 19.2719 310.57 19.5996C310.229 19.9887 309.968 20.4421 309.804 20.9333C309.639 21.4244 309.575 21.9435 309.613 22.46V28.9019H305.662V15.2221H309.39V17.0129C309.886 16.3358 310.568 15.8174 311.353 15.5205V15.5205Z" fill="white"/>
<path d="M318.982 28.1682C317.875 27.6086 316.948 26.7461 316.311 25.6809C315.656 24.5843 315.321 23.3267 315.342 22.0495C315.321 20.7764 315.657 19.5228 316.311 18.4306C316.948 17.3653 317.875 16.5029 318.982 15.9433C320.182 15.3492 321.502 15.04 322.84 15.04C324.179 15.04 325.499 15.3492 326.698 15.9433C327.8 16.507 328.721 17.3688 329.357 18.4306C330.011 19.5228 330.347 20.7764 330.326 22.0495C330.347 23.3267 330.012 24.5843 329.357 25.6809C328.721 26.7427 327.8 27.6044 326.698 28.1682C325.497 28.7568 324.178 29.0629 322.84 29.0629C321.503 29.0629 320.183 28.7568 318.982 28.1682V28.1682ZM325.344 24.7979C326.017 24.0409 326.365 23.0491 326.313 22.0371C326.363 21.0291 326.015 20.0419 325.344 19.2887C325.026 18.9512 324.64 18.6848 324.212 18.5069C323.783 18.329 323.322 18.2437 322.859 18.2565C322.396 18.246 321.935 18.3324 321.508 18.5102C321.08 18.6879 320.693 18.9531 320.374 19.2887C320.035 19.6586 319.773 20.0919 319.603 20.5636C319.432 21.0352 319.356 21.536 319.38 22.0371C319.355 22.5402 319.431 23.0431 319.601 23.5169C319.772 23.9908 320.034 24.4261 320.374 24.7979C320.695 25.1313 321.081 25.3941 321.509 25.5697C321.937 25.7453 322.397 25.8297 322.859 25.8177C323.322 25.8329 323.782 25.7498 324.21 25.5741C324.639 25.3983 325.025 25.1338 325.344 24.7979V24.7979Z" fill="white"/>
<path d="M332.998 10.0361H336.949V28.8646H332.998V10.0361Z" fill="white"/>
<path d="M340.59 10.0361H344.541V28.8646H340.59V10.0361Z" fill="white"/>
<path d="M350.841 28.1681C349.736 27.6046 348.81 26.7431 348.169 25.6809C347.519 24.583 347.188 23.3254 347.212 22.0495C347.188 20.7774 347.519 19.5238 348.169 18.4305C348.81 17.3683 349.736 16.5068 350.841 15.9433C352.033 15.3246 353.361 15.0126 354.705 15.0354C356.045 15.0094 357.369 15.3217 358.557 15.9433C359.662 16.5068 360.587 17.3683 361.228 18.4305C361.856 19.5355 362.185 20.7847 362.185 22.0557C362.185 23.3267 361.856 24.5759 361.228 25.6809C360.587 26.7431 359.662 27.6046 358.557 28.1681C357.366 28.78 356.043 29.0876 354.705 29.0635C353.363 29.0845 352.037 28.7771 350.841 28.1681V28.1681ZM357.202 24.7979C357.54 24.4255 357.801 23.9897 357.969 23.5158C358.138 23.0419 358.211 22.5393 358.184 22.037C358.21 21.5368 358.136 21.0363 357.968 20.5646C357.799 20.0928 357.539 19.6592 357.202 19.2886C356.884 18.9512 356.498 18.6848 356.07 18.5069C355.642 18.329 355.181 18.2437 354.717 18.2564C354.254 18.2475 353.795 18.3346 353.367 18.5123C352.939 18.6899 352.553 18.9542 352.232 19.2886C351.895 19.6592 351.635 20.0928 351.467 20.5646C351.298 21.0363 351.225 21.5368 351.251 22.037C351.224 22.5393 351.297 23.0419 351.465 23.5158C351.634 23.9897 351.894 24.4255 352.232 24.7979C352.553 25.1306 352.94 25.3931 353.368 25.5686C353.796 25.7441 354.255 25.8289 354.717 25.8177C355.18 25.8328 355.641 25.7498 356.069 25.574C356.497 25.3983 356.883 25.1338 357.202 24.7979V24.7979Z" fill="white"/>
<path d="M140.182 53.6004H129.869C130.026 54.4161 130.499 55.1363 131.186 55.6026C131.946 56.1216 132.852 56.3832 133.771 56.3488C134.415 56.3572 135.055 56.2476 135.659 56.0255C136.229 55.7972 136.748 55.4592 137.188 55.0306L139.3 57.3064C138.582 58.067 137.706 58.6597 136.733 59.0423C135.76 59.4249 134.714 59.5881 133.671 59.52C132.256 59.5449 130.855 59.2338 129.583 58.6122C128.453 58.0617 127.505 57.1985 126.85 56.125C126.196 55.0327 125.86 53.7792 125.881 52.506C125.864 51.2349 126.194 49.9834 126.837 48.887C127.459 47.8313 128.363 46.97 129.447 46.3998C130.582 45.8151 131.841 45.51 133.118 45.51C134.396 45.51 135.654 45.8151 136.79 46.3998C137.84 46.9722 138.703 47.8359 139.275 48.887C139.902 50.029 140.219 51.3153 140.195 52.6179C140.195 52.6179 140.232 52.9413 140.182 53.6004ZM130.925 49.2104C130.303 49.7397 129.908 50.4874 129.819 51.2997H136.529C136.425 50.493 136.027 49.7533 135.411 49.2228C134.787 48.7044 133.997 48.4304 133.187 48.4518C132.367 48.4301 131.566 48.6987 130.925 49.2104V49.2104Z" fill="white"/>
<path d="M151.179 59.3086L148.196 55.13L145.103 59.3086H140.791L146.034 52.4313L140.965 45.666H145.376L148.271 49.6456L151.228 45.666H155.44L150.346 52.3319L155.614 59.3086H151.179Z" fill="white"/>
<path d="M169.121 46.3375C170.166 46.9171 171.027 47.7789 171.606 48.8247C172.185 49.9673 172.487 51.2307 172.487 52.5121C172.487 53.7935 172.185 55.0568 171.606 56.1994C171.027 57.2452 170.166 58.107 169.121 58.6867C168.061 59.2773 166.867 59.5816 165.654 59.5697C164.892 59.6077 164.13 59.4795 163.422 59.1939C162.714 58.9083 162.077 58.4722 161.554 57.9156V64.283H157.59V45.6659H161.318V47.2578C161.848 46.6527 162.511 46.1777 163.254 45.8694C163.997 45.5611 164.801 45.4277 165.604 45.4794C166.831 45.4511 168.044 45.7471 169.121 46.3375ZM167.468 55.2418C168.103 54.4644 168.45 53.4913 168.45 52.4872C168.45 51.4832 168.103 50.51 167.468 49.7326C167.149 49.3967 166.763 49.1322 166.335 48.9565C165.906 48.7807 165.446 48.6977 164.983 48.7128C164.521 48.7 164.061 48.7841 163.633 48.9597C163.205 49.1353 162.818 49.3986 162.498 49.7326C161.872 50.5139 161.531 51.4856 161.531 52.4872C161.531 53.4888 161.872 54.4605 162.498 55.2418C162.818 55.5758 163.205 55.8391 163.633 56.0147C164.061 56.1903 164.521 56.2744 164.983 56.2616C165.446 56.2768 165.906 56.1937 166.335 56.018C166.763 55.8422 167.149 55.5777 167.468 55.2418Z" fill="white"/>
<path d="M188.367 53.6003H178.054C178.216 54.4139 178.689 55.1323 179.372 55.6025C180.132 56.1199 181.037 56.3813 181.956 56.3487C182.6 56.3582 183.24 56.2486 183.845 56.0253C184.414 55.7971 184.934 55.459 185.373 55.0304L187.485 57.3063C186.767 58.0668 185.891 58.6596 184.918 59.0422C183.945 59.4248 182.9 59.5879 181.857 59.5199C180.442 59.5434 179.041 59.2323 177.769 58.6121C176.639 58.0616 175.69 57.1984 175.035 56.1248C174.385 55.0315 174.054 53.7779 174.078 52.5059C174.057 51.2359 174.384 49.9842 175.023 48.8869C175.645 47.8312 176.548 46.9698 177.632 46.3997C178.778 45.7878 180.061 45.4755 181.36 45.4918C182.622 45.4775 183.869 45.7766 184.988 46.3624C186.038 46.9348 186.901 47.7984 187.473 48.8496C188.1 49.9916 188.417 51.2778 188.392 52.5805C188.392 52.5805 188.417 52.9411 188.367 53.6003ZM179.123 49.2103C178.502 49.7423 178.103 50.4877 178.005 51.2995H184.714C184.62 50.4928 184.225 49.7514 183.609 49.2227C182.984 48.7297 182.205 48.4742 181.409 48.5014C180.587 48.4563 179.776 48.7078 179.123 49.2103V49.2103Z" fill="white"/>
<path d="M196.767 46.0143C197.652 45.6622 198.598 45.4889 199.55 45.5044V49.1606H198.668C198.181 49.1331 197.694 49.2037 197.235 49.3682C196.776 49.5327 196.355 49.7877 195.997 50.1182C195.655 50.505 195.395 50.9563 195.231 51.4454C195.066 51.9345 195.001 52.4516 195.04 52.9661V59.4081H191.076V45.7282H194.804V47.5315C195.304 46.852 195.984 46.3264 196.767 46.0143V46.0143Z" fill="white"/>
<path d="M202.11 43.129C201.894 42.9277 201.722 42.6842 201.605 42.4136C201.487 42.1429 201.427 41.851 201.427 41.5559C201.427 41.2608 201.487 40.9688 201.605 40.6982C201.722 40.4275 201.894 40.184 202.11 39.9827C202.596 39.5457 203.234 39.3179 203.887 39.3484C204.534 39.3201 205.169 39.5378 205.663 39.9578C205.882 40.1447 206.057 40.3776 206.175 40.6399C206.293 40.9022 206.352 41.1874 206.347 41.475C206.353 41.7812 206.296 42.0853 206.178 42.368C206.06 42.6506 205.885 42.9056 205.663 43.1166C205.179 43.5581 204.541 43.7905 203.887 43.7633C203.234 43.7938 202.596 43.566 202.11 43.129ZM201.911 45.6163H205.862V59.2962H201.911V45.6163Z" fill="white"/>
<path d="M231.11 46.9719C231.65 47.588 232.061 48.3059 232.319 49.0833C232.577 49.8607 232.678 50.6819 232.614 51.4987V59.3087H228.625V52.1081C228.689 51.2463 228.452 50.3892 227.954 49.683C227.717 49.4134 227.421 49.2016 227.09 49.0637C226.758 48.9258 226.399 48.8654 226.041 48.8871C225.63 48.8672 225.219 48.937 224.837 49.0916C224.455 49.2462 224.111 49.4819 223.829 49.7825C223.24 50.5436 222.952 51.4958 223.022 52.4563V59.3087H219.07V52.1081C219.07 49.9566 218.201 48.8871 216.486 48.8871C216.078 48.8683 215.671 48.9387 215.294 49.0934C214.916 49.248 214.577 49.4832 214.299 49.7825C213.71 50.5436 213.422 51.4958 213.491 52.4563V59.3087H209.54V45.6288H213.268V47.2579C213.778 46.6798 214.417 46.2284 215.132 45.9397C215.898 45.6312 216.716 45.4749 217.542 45.4795C218.448 45.4702 219.344 45.6657 220.164 46.0516C220.926 46.4258 221.57 47.0022 222.028 47.7181C222.602 46.9808 223.349 46.3958 224.202 46.0143C225.082 45.622 226.035 45.4227 226.998 45.4298C227.752 45.3905 228.507 45.5072 229.214 45.7725C229.922 46.0378 230.567 46.4461 231.11 46.9719V46.9719Z" fill="white"/>
<path d="M249.562 53.6004H239.249C239.411 54.4141 239.883 55.1325 240.566 55.6026C241.326 56.12 242.232 56.3814 243.151 56.3488C243.795 56.3583 244.435 56.2487 245.039 56.0255C245.609 55.7972 246.128 55.4592 246.568 55.0306L248.68 57.3064C247.962 58.067 247.085 58.6597 246.113 59.0423C245.14 59.4249 244.094 59.5881 243.051 59.52C241.636 59.5449 240.235 59.2338 238.963 58.6122C237.833 58.0617 236.885 57.1985 236.23 56.125C235.576 55.0327 235.24 53.7792 235.261 52.506C235.243 51.2349 235.574 49.9834 236.217 48.887C236.839 47.8313 237.743 46.97 238.827 46.3998C239.962 45.8151 241.221 45.51 242.498 45.51C243.775 45.51 245.034 45.8151 246.17 46.3998C247.22 46.9722 248.083 47.8359 248.655 48.887C249.282 50.029 249.599 51.3153 249.574 52.6179C249.574 52.6179 249.612 52.9413 249.562 53.6004ZM240.305 49.2104C239.683 49.7397 239.288 50.4874 239.199 51.2997H245.909C245.804 50.4987 245.402 49.7666 244.783 49.2483C244.164 48.73 243.373 48.4635 242.567 48.5015C241.753 48.4657 240.953 48.7165 240.305 49.2104V49.2104Z" fill="white"/>
<path d="M264.659 46.9842C265.212 47.5905 265.636 48.3039 265.903 49.0803C266.17 49.8568 266.275 50.6798 266.212 51.4986V59.3086H262.261V52.108C262.313 51.2611 262.062 50.4234 261.552 49.7451C261.29 49.4697 260.971 49.2556 260.616 49.118C260.262 48.9804 259.881 48.9228 259.502 48.9491C259.063 48.9283 258.623 48.9993 258.213 49.1578C257.802 49.3162 257.429 49.5586 257.117 49.8694C256.474 50.6392 256.157 51.63 256.234 52.6303V59.3707H252.234V45.6908H255.961V47.2578C256.503 46.6729 257.17 46.2181 257.912 45.9271C258.727 45.6084 259.596 45.448 260.471 45.4546C261.237 45.41 262.003 45.5227 262.723 45.7858C263.443 46.0489 264.102 46.4567 264.659 46.9842V46.9842Z" fill="white"/>
<path d="M278.588 58.6495C278.159 58.9579 277.673 59.1777 277.159 59.2962C276.574 59.4471 275.973 59.5223 275.369 59.5201C274.014 59.5957 272.681 59.1509 271.642 58.2764C271.177 57.7941 270.818 57.2194 270.589 56.5896C270.36 55.9597 270.266 55.2888 270.312 54.6202V49.0114H268.2V46.0143H270.312V42.644H274.264V46.0143H277.656V49.0612H274.226V54.6202C274.195 55.1053 274.356 55.5832 274.674 55.9508C274.837 56.1114 275.031 56.2363 275.245 56.3177C275.459 56.399 275.688 56.435 275.916 56.4234C276.489 56.4422 277.051 56.262 277.507 55.9135L278.588 58.6495Z" fill="white"/>
<path d="M291.187 46.9717C291.783 47.5613 292.245 48.2738 292.539 49.0599C292.833 49.8459 292.952 50.6865 292.889 51.5234V59.3085H289.161V57.6171C288.707 58.284 288.079 58.8137 287.345 59.1491C286.611 59.4845 285.8 59.6127 284.999 59.5199C284.064 59.5377 283.136 59.3554 282.278 58.9851C281.56 58.6712 280.948 58.1575 280.513 57.5052C280.1 56.8743 279.888 56.1328 279.905 55.3786C279.884 54.8008 280.004 54.2267 280.252 53.705C280.501 53.1832 280.872 52.7292 281.333 52.3815C282.656 51.5616 284.205 51.1828 285.757 51.2995H288.9C288.924 50.9289 288.866 50.5576 288.73 50.2118C288.595 49.8659 288.386 49.5538 288.118 49.2973C287.442 48.785 286.602 48.5373 285.757 48.6008C285.031 48.6052 284.31 48.7227 283.62 48.9491C282.974 49.149 282.369 49.4604 281.83 49.8693L280.414 47.1085C281.227 46.5449 282.131 46.1243 283.085 45.8649C284.13 45.5767 285.208 45.4303 286.291 45.4296C288.058 45.3154 289.804 45.8653 291.187 46.9717V46.9717ZM287.819 56.3859C288.347 56.074 288.741 55.578 288.925 54.9931V53.6002H286.217C284.601 53.6002 283.732 54.135 283.732 55.2045C283.718 55.4453 283.766 55.6856 283.87 55.903C283.974 56.1205 284.132 56.308 284.328 56.4481C284.813 56.7669 285.389 56.9197 285.968 56.8834C286.619 56.893 287.261 56.7208 287.819 56.3859V56.3859Z" fill="white"/>
<path d="M296.455 40.4924H300.419V59.3085H296.455V40.4924Z" fill="white"/>
<path d="M140.642 76.1099V89.7898H136.914V88.1357C136.394 88.7413 135.744 89.2216 135.013 89.541C134.266 89.8572 133.463 90.018 132.652 90.0136C131.874 90.0521 131.096 89.9344 130.365 89.6674C129.633 89.4005 128.961 88.9896 128.391 88.4591C127.836 87.8381 127.411 87.1119 127.142 86.3236C126.873 85.5353 126.766 84.701 126.825 83.8701V76.1099H130.776V83.2358C130.776 85.4371 131.696 86.5315 133.535 86.5315C133.959 86.5516 134.384 86.4798 134.778 86.321C135.173 86.1622 135.528 85.9201 135.821 85.6112C136.444 84.8366 136.75 83.8545 136.678 82.8628V76.1099H140.642Z" fill="white"/>
<path d="M153.104 89.0934C152.679 89.4079 152.192 89.6284 151.676 89.7401C151.091 89.8916 150.49 89.9669 149.886 89.9639C148.531 90.0408 147.197 89.5959 146.159 88.7203C145.694 88.2379 145.335 87.6632 145.106 87.0334C144.877 86.4036 144.783 85.7327 144.829 85.064V79.4553H142.729V76.4084H144.829V73.0879H148.78V76.4084H152.185V79.4553H148.78V85.0143C148.749 85.4994 148.91 85.9773 149.228 86.345C149.391 86.5049 149.586 86.6294 149.8 86.7107C150.014 86.792 150.242 86.8284 150.47 86.8175C151.046 86.8302 151.61 86.6509 152.073 86.3077L153.104 89.0934Z" fill="white"/>
<path d="M168.189 84.0442H157.876C158.041 84.8599 158.512 85.5811 159.193 86.0589C159.957 86.5664 160.861 86.8229 161.777 86.7926C162.421 86.8021 163.062 86.6925 163.666 86.4693C164.238 86.2382 164.761 85.9006 165.207 85.4744L167.307 87.7502C166.591 88.5136 165.715 89.1082 164.741 89.491C163.768 89.8739 162.721 90.0354 161.678 89.9638C160.266 89.9969 158.867 89.6853 157.602 89.056C156.467 88.5093 155.513 87.6455 154.856 86.5687C154.206 85.4755 153.875 84.2218 153.9 82.9498C153.878 81.6798 154.205 80.4282 154.844 79.3309C155.469 78.278 156.372 77.4175 157.453 76.8436C158.601 76.236 159.883 75.9281 161.181 75.9482C162.443 75.9295 163.689 76.2244 164.809 76.8063C165.882 77.369 166.768 78.2336 167.356 79.2935C167.989 80.4331 168.306 81.7211 168.276 83.0244C168.276 83.0244 168.238 83.3851 168.189 84.0442ZM158.944 79.6666C158.322 80.1916 157.922 80.9342 157.826 81.7435H164.548C164.447 80.9394 164.048 80.2026 163.43 79.6791C162.806 79.1512 162.01 78.8723 161.193 78.8956C160.375 78.8715 159.576 79.1455 158.944 79.6666Z" fill="white"/>
<path d="M192.443 77.4159C192.982 78.032 193.393 78.7498 193.652 79.5272C193.91 80.3047 194.01 81.1259 193.946 81.9427V89.7651H189.995V82.552C190.059 81.6903 189.822 80.8332 189.324 80.127C189.087 79.8574 188.791 79.6456 188.459 79.5077C188.128 79.3697 187.769 79.3093 187.411 79.3311C186.999 79.3112 186.588 79.3809 186.207 79.5355C185.825 79.6901 185.481 79.9259 185.199 80.2265C184.61 80.9925 184.322 81.9485 184.391 82.9127V89.7651H180.44V82.552C180.44 80.4006 179.57 79.3311 177.856 79.3311C177.448 79.3123 177.041 79.3827 176.664 79.5373C176.286 79.692 175.946 79.9271 175.669 80.2265C175.08 80.9925 174.792 81.9485 174.861 82.9127V89.7651H170.91V76.0852H174.638V77.6522C175.145 77.0756 175.778 76.6244 176.489 76.3339C177.263 76.0204 178.09 75.8599 178.924 75.8613C179.825 75.8465 180.718 76.0379 181.534 76.421C182.299 76.7949 182.948 77.3711 183.41 78.0874C183.974 77.375 184.703 76.8114 185.535 76.4458C186.423 76.0409 187.391 75.8411 188.367 75.8613C189.117 75.8281 189.865 75.949 190.566 76.2163C191.267 76.4837 191.906 76.8919 192.443 77.4159V77.4159Z" fill="white"/>
</g>
<defs>
<clipPath id="clip0_24_15">
<rect width="362.185" height="100" fill="white"/>
</clipPath>
</defs>
</svg>
